<?xml version="1.0" encoding="utf-8"?>
<!-- Generator: Adobe Illustrator 27.2.0, SVG Export Plug-In . SVG Version: 6.00 Build 0)  -->
<svg version="1.1" xmlns="http://www.w3.org/2000/svg" xmlns:xlink="http://www.w3.org/1999/xlink" x="0px" y="0px"
	 viewBox="0 0 612 792" style="enable-background:new 0 0 612 792;" xml:space="preserve">
<g id="K">
	<path d="M205.33,527.52h30.35c0-0.48,0-1.01,0-1.38l-0.03-0.23c-2.15-15.12-14.73-29.88-23.92-40.66
		c-5.58-6.55-11.35-13.31-10.44-15.72c5.52-14.57,17.75-26.9,33.54-33.83l1.39-0.6c-0.01-0.55-0.01-1.5,0-2.08h-32.99l0.02,1.42
		c0.13,11.09-1.6,14.54-8.86,29.06c-0.6,1.21-1.25,2.49-1.9,3.8l-1.93,3.47c0.04-2.98,0.1-6.4,0.22-8.08
		c0.72-10.64,2.38-25.38,3.35-27.73l0.81-1.94h-30.67l1.62,2.23c2.33,3.21,4.69,18.29,4.69,44.76c0,23.23-1.85,41.02-4.72,45.33
		l-1.45,2.18h31.04l-1.45-2.18c-2.83-4.26-3.39-7.14-3.39-30.66l-0.06-5.65c-0.02-2.01,2.7-7.48,4.41-10.44l0.94-1.58
		c7.96,13.56,13.85,35.23,9.95,48.72L205.33,527.52z"/>
</g>
<g id="I">
	<path d="M265.33,527.52c0-0.28,0-0.58,0-0.88l-0.88-1.31c-2.87-4.31-4.72-22.1-4.72-45.33c0-24.03,1.94-38.68,4.05-43.57
		c-0.02-0.4-0.02-2.44-0.01-3.41h-27.52c0.01,0.58,0.01,1.53,0,2.09l0.1,0.13c2.33,3.21,4.69,18.29,4.69,44.76
		c0,23.23-1.85,41.02-4.72,45.33l-0.6,0.89c0,0.36,0,0.85,0,1.3H265.33z"/>
</g>
<g id="Y">
	<path d="M327.05,433.01h-30.27l1.07,2.05c7.28,14,19.23,37,3.12,61.55c-0.64-5.84-3.42-12.16-6.32-18.77
		c-5.67-12.91-12.1-27.55-4.59-42.8l1-2.02H263.8c0.01,1.05,0.01,3.37-0.01,3.48c0.64,23.55,12.98,37.91,22.07,48.48
		c8.82,10.25,12.78,15.47,6.5,22.09c-5.47,5.76-13.31,11.6-23.97,17.83l-3.01,1.77c0,0.29,0,0.58,0,0.85h37.83l0.41-0.69
		c18.41-31.07,18.99-47.43,19.54-63.26c0.31-8.78,0.61-17.09,3.91-27.71C327.05,435.31,327.05,433.93,327.05,433.01z"/>
</g>
<g id="P">
	<path d="M388.63,458.4c-0.08-0.86-0.48-7.25-0.46-8.37c-2.36-11.43-12.21-17.02-29.94-17.02h-31.14c0.01,0.92,0,2.29-0.01,2.85
		c2.21,4.22,4.33,19.06,4.33,44.14c0,23.23-1.85,41.02-4.72,45.33l-1.45,2.18h30.78l-1.12-2.07c-3.01-5.56-4.41-10.96-4.41-17.02
		c0-15.5,9.3-20.89,19.14-26.59c8.79-5.09,17.86-10.35,18.99-23.18C388.62,458.54,388.63,458.45,388.63,458.4z M356.44,479.76
		c-2.3,2.22-4.51,4.35-6.31,6.67c-0.02-2.08-0.02-4.21-0.02-6.42c0-28.16,1.41-41.56,9.4-41.56c5.12-0.01,10.29,4.86,10.29,15.75
		C369.8,466.87,363.01,473.42,356.44,479.76z"/>
</g>
<g id="S">
	<g id="Capa_2_00000098928869766357230070000016695638624411719098_">
		<path d="M419.81,466.31c-9.64-6.25-17.97-11.65-17.97-19.58c0-4.72,2.91-7.9,7.24-7.9c7.43,0,17.2,9.62,27.52,27.08l1.6,2.71
			l8.53-27.16l-1.01-0.55c-9.44-5.2-22.69-8.69-32.96-8.69c-14.27,0-23.22,6.69-24.49,18.04c0,0.52,0,1.02-0.01,1.37
			c0.11,2.21,0.34,5.93,0.38,6.71c0,0.03,0.01,0.08,0.01,0.17c2.41,11.6,12.44,18.93,22.2,26.04c10.4,7.59,20.23,14.76,20.23,26.49
			c0,7.13-3.5,11.56-9.15,11.56c-8.58,0-17.98-10.71-28.74-32.75l-2.12-4.34l-4.82,43.01l1.89-0.39c2.1-0.43,4.45-0.63,7.6-0.63
			c3.39,0,6.77,0.28,10.34,0.57c3.61,0.3,7.35,0.61,11.14,0.61c25.22,0,30.51-13.51,30.51-24.85
			C447.73,484.41,432.9,474.8,419.81,466.31z"/>
	</g>
</g>
<g id="FACE_00000080168840085168970200000014933087450670893707_">
	<g id="Capa_1_00000098916145798047673550000014638761427988868787_">
		<g>
			<path d="M399.89,419.58c-13.26-7.32-32.75-10.47-50.27-12.2c3.57-2.85,7.09-5.34,10.22-8.24c3.2-2.96,6.02-6.32,9.07-9.58
				c5.65,5.97,12.55,7.31,20.21,4.69c14.76-5.06,23.03-25.58,16.07-39.56c-4.54-9.13-14.35-12.38-23.44-7.77
				c-0.57,0.29-1.17,0.54-1.5,0.69c-0.49-5.38-1.97-10.85-4.52-16.79l-4.08-6.26c-1.7-2.18-4.21-4.89-6.35-6.82l-6.42-4.57
				c-2.95-1.8-6.99-3.68-10.5-4.89l-7.38-2.39c-2.59-0.69-5.6-1.38-8.97-2.03l-7.58-1.13c-3.62-0.62-7.68-1.09-12.25-1.34
				l-7.55-0.67c-2.57-0.15-5.88-0.17-8.36-0.12l-7.96,0.35c-3.93,0.03-9.92,0.79-12.91,1.34l-6.98,1.31
				c-4.17,1.22-8.22,2.48-13.28,5.49l-5.78,4.86c0,0-0.22,0.45-0.55,0.97c-3.7,6-2.59,12.2,0.21,18.13
				c0.61,1.29,1.29,2.54,2.01,3.93c-1.55,0.4-2.82,0.69-4.07,1.06s-2.51,0.74-3.72,1.23c-13.31,5.47-23.08,15.06-30.88,26.84
				c-4.59,6.94-7.58,14.29-6.43,22.99c0.77,5.81,2.03,11.22,6.44,15.37c1.25,1.18,2.8,2.05,4.24,3.08c0,0-2.8,3.13-3.93,4.68
				c-3.75,5.15-1.75,9.79,4.56,10.78c3.33,0.52,10.14,0.47,10.14,0.47c21.87-0.16,43.73-0.53,65.6-0.62
				c31.96-0.12,95.87-0.07,95.87-0.07c6.58,0.06,9.28-0.3,9.28-0.3C400.69,422.2,402.89,421.23,399.89,419.58z M377.94,367.91
				c1.24-4.44,2.08-11.61,2.08-11.61c4.76-5.26,14.32-6.45,18.39-0.67c1.97,2.8,2.96,6.33,2.93,12.03
				c-0.6,7.31-3.98,14.68-11.83,19.36c-4.36,2.6-9.02,3.03-13.54,0.2c-2.98-1.86-3.55-4.41-3.55-4.41
				C374.14,379.1,376.29,373.84,377.94,367.91z M227.32,359.39c13.02-12.42,21.05-14.2,23.86-14.63c5.93-0.91,10.16,3.24,8.42,9.08
				c-1.21,4.06-3.32,8.34-5.9,12.4l-0.95,0.23c-11.14,2.46-20.74,7.82-30.63,13.66c-5.84,3.45-8.49,3.79-8.49,3.79
				C213.3,376.19,223.35,363.18,227.32,359.39z M213.3,391.83c8.34-1.24,13.93-6.4,21.14-9.9c0.25,1.84,0.75,3.8,2.58,5.09
				l-0.72,0.75c-4.52,4.68-9.07,9.33-13.73,13.87c-0.54,0.53-0.91,0.89-0.91,0.89C216.25,400.29,214.2,396.53,213.3,391.83z
				 M299.18,414.29c-7.18,0.67-14.41,0.81-21.77,1.19c0,0,0.99-1.58,0.77-3.91c-0.94-10.06-14.26-13.96-21.28-10.52
				c-1.47,0.72-2.15,2.25-1.69,3.6c0.61,1.79,2.06,2,3.76,1.83c2.1-0.21,4.28-0.55,6.33-0.25c3.05,0.45,6.01,3.41,5.82,5.87
				c-0.33,4.17-5.1,3.87-5.1,3.87l-46.71-0.17c0,0,19.9-19.84,26.41-26.75c4.71-5,13.26-16.23,13.26-16.23l8.34,0.01
				c-2.68,12.93,0.67,20.57,0.67,20.57c3.28,8.16,10.35,11.52,17.72,12c14.11,0.92,27.26-2.42,38.23-11.45
				c10.46-8.61,14.6-20.16,11.46-33.51c-3.09-13.19-17.72-29.99-40.62-23.15c-18.91,5.64-25.09,20.53-26.52,28.01l-4.96-0.01
				c0.84-1.98,1.87-4.3,2.61-6.29c1.5-4.06,2.45-8.22,1.45-12.69c-0.69-3.1-2.64-5.83-5.39-7.41c-1.05-0.61-2.07-1.59-2.67-2.66
				c-1.58-2.81-3.1-5.68-4.38-8.63c-0.95-2.19-1.4-4.55-0.08-7.22l5.22-5.17c2.77-1.71,6.21-3.26,9.89-4.34l7.29-1.35
				c2.9-0.47,5.83-0.8,9.33-1l7.63-0.29c1.68,0,5.47-0.06,7.75,0.09l7.67,0.33c3.13,0.08,10.03,0.66,13.3,1.38l7.25,1.17
				c2.21,0.29,4.07,0.67,6.38,1.42l7.39,2.05c2.67,0.63,6.98,2.44,10.04,4.36l6.04,4.33c1.77,1.28,3.19,2.88,4.82,4.99l3.64,6.25
				c0.55,1.28,1.14,2.41,1.55,3.6c3.83,11.15,3.27,22.28-0.59,33.26c-5.84,16.6-17.75,27.33-33.57,34.2
				C324.16,410.74,311.79,413.11,299.18,414.29z M283.53,389.4c3.97-0.12,6.77-2.92,7-6.87c0.04-0.66,0.01-1.33,0.01-2.37
				c6.36,4.01,10.85,8.02,17.16,14.47c-4.25,2.36-8.18,3.45-12.66,3.9c-3.41,0.34-6.9,0.34-10.32,0.04
				c-6.94-0.6-12.08-6.93-11.54-14.22c0.81,0.7,1.47,1.28,2.15,1.84C277.72,388.15,280.37,389.49,283.53,389.4z M275.87,366.5
				c3.4-16.72,21.8-26.54,36.31-21.68c15.3,5.13,21.7,24.16,11.66,38.49c-2.57,3.67-6.3,7.12-9.43,8.6
				c-5.8-6.38-10.93-10.9-19.03-16.4C286.48,369.48,275.87,366.5,275.87,366.5z"/>
			<path d="M381.31,382.17c1.4,0.14,2.03-0.78,2.46-1.64c0.41-1.05,0.78-2.31,1.16-3.48c1.05-3.24,2.09-3.95,5.62-2.67
				c1.06,0.38,2.63,0.35,3.21-1.22c0.51-1.37-0.43-2.69-1.84-3.48c-1.02-0.57-3.82-1.47-6.59-0.4c0.84-4.76,3.86-8.85,8.76-7.05
				c0.47,0.17,0.96,0.26,1.45,0.31c0.64,0.06,1.54-0.24,1.92-1.17c0.52-1.29,0.01-2.6-0.94-3.26c-1.05-0.74-2.49-1.26-3.81-1.34
				c-4.8-0.29-8.13,2.11-10.36,6c-3.02,5.28-3.21,11.42-3.03,17.28C379.4,381.12,379.86,382.02,381.31,382.17z"/>
		</g>
	</g>
</g>
<g id="HAIR_1">
	<path d="M386.07,321.18c-0.83-1.56-2.26-2.04-3.93-1.61c-1.03,0.27-2.06,0.65-3.01,1.13l-14.29,7.66c0,0-2.76,1.6-3.97,2.37
		c-2.02,1.29-2.65,3.18-1.68,4.88c0.91,1.6,2.8,2.08,4.87,1.16c1.4-0.62,2.75-1.34,4.42-2.16l7.25-3.79c0.78-0.42,1.8-0.94,2.8-1.5
		c2.21-1.25,4.49-2.38,6.57-3.82C386.56,324.49,386.96,322.85,386.07,321.18z"/>
</g>
<g id="HAIR_2">
	<path d="M382.01,293.89c-1.43-1.42-3.09-1.34-4.63-0.24c-1.12,0.8-2.12,1.79-3.05,2.8l-20.35,22.59c0,0-6.8,7.7-10.04,11.38
		c-0.36,0.4-0.75,0.78-1.05,1.23c-1.16,1.7-1.03,3.67,0.37,4.79c1.57,1.26,3.24,1.1,4.6-0.22c2.15-2.09,4.14-4.34,6.19-6.53
		c1.89-2.01,3.79-4.01,5.97-6.32l5.28-5.63c4.3-4.71,8.57-9.33,12.78-14.02c1.54-1.71,3-3.51,4.32-5.4
		C383.43,296.85,383.34,295.21,382.01,293.89z"/>
</g>
<g id="HAIR_3">
	<path d="M359.48,285.11c-1.63-1.04-3.3-0.69-4.62,0.68c-0.9,0.94-1.68,2.01-2.4,3.09c-3.41,5.13-6.75,10.3-10.2,15.4l-6.89,10.77
		c-0.74,1.71-0.43,3.23,1.13,4.26c1.56,1.03,3.12,0.71,4.4-0.57c0.7-0.7,1.22-1.59,1.8-2.39l16.44-23.73
		c0.64-0.95,1.24-1.96,1.64-3.03C361.45,287.83,361.12,286.15,359.48,285.11z"/>
</g>
<g id="HAIR_4">
	<path d="M336.44,281.53c-0.34-1.23-1.12-2.17-3.08-2.44c-1.45-0.2-2.18,0.16-3.13,1.04c-0.62,0.58-1.16,2.23-1.38,3.19
		c-1.02,4.42-1.94,8.86-2.95,13.29l-5.52,25.2c-0.15,0.68-0.3,1.36-0.37,2.04c-0.19,1.96,0.34,3.55,2.45,4.12
		c1.88,0.51,3.51-0.49,4.17-2.69c0.72-2.43,1.24-4.92,1.86-7.38l4.11-16.66c1.18-5.18,2.4-10.35,3.52-15.54
		C336.38,284.51,336.74,282.6,336.44,281.53z"/>
</g>
<g id="HAIR_5">
	<path d="M315.5,280.77c-1.88-0.61-3.66,0.26-4.69,2.35c-0.37,0.75-0.64,1.57-0.91,2.37c-1.53,4.52-3.02,9.05-4.61,13.55
		l-4.04,12.35c-0.21,1.83,0.54,3.21,2.31,3.78c1.68,0.55,3.01-0.14,3.94-1.6c0.25-0.39,0.43-0.82,0.61-1.24l6.9-18.75
		c0.95-2.68,1.96-5.35,2.73-8.09C318.35,283.3,317.28,281.35,315.5,280.77z"/>
</g>
<g id="HAIR_6">
	<path d="M299.43,265.05c-2.38-0.31-3.53,1.14-4.19,3.13c-0.41,1.24-0.73,2.51-1,3.79c-1.86,8.96-3.73,17.93-5.5,26.91
		c-0.31,1.57-0.41,2.07-0.41,2.07l-2.49,12.07c-0.63,3.17-1.32,6.32-1.97,9.48c-0.6,2.9,0.2,4.71,2.3,5.26
		c2.17,0.57,3.77-0.74,4.5-3.79c1.08-4.57,2.15-9.14,3.11-13.73l2.51-9.64c0.53-2.56,5.75-28.61,5.96-31.21
		C302.46,266.8,301.36,265.3,299.43,265.05z"/>
</g>
<g id="HAIR_7">
	<path d="M277.24,309.53l-5.13-23.16c-0.58-2.6-1.19-5.22-2.12-7.71c-0.66-1.76-2.24-2.53-4.15-2.03c-1.82,0.48-2.55,1.91-2.6,3.66
		c-0.03,0.91,0.12,1.84,0.33,2.74c0.74,3.3,1.54,6.6,2.32,9.89c0.84,3.56,1.78,7.44,2.55,10.68l1.51,7.28
		c1.12,2.67,1.52,5.95,5.18,4.95C278.29,314.97,277.47,312.17,277.24,309.53z"/>
</g>
<g id="HAIR_8">
	<path d="M266.44,323.31c-1.37-1.95-2.95-3.75-4.43-5.61c-0.62-0.77-1.01-1.29-1.95-2.48l-4.9-6.13c0,0-0.68-0.71-1.1-1.21
		c-3.95-4.62-7.81-9.32-11.73-13.97c-1.04-1.23-2.11-2.47-3.32-3.52c-1.42-1.24-3.13-1.43-4.66-0.22c-1.55,1.22-1.66,2.91-0.78,4.58
		c0.6,1.15,1.35,2.25,2.19,3.24c4.19,4.92,9.47,11,13.62,15.96l5.46,6.44c1.33,1.49,2.53,2.84,3.73,4.18
		c0.92,1.03,1.79,2.12,2.78,3.08c1.38,1.35,2.96,1.62,4.59,0.43C267.37,327.04,267.65,325.03,266.44,323.31z"/>
</g>
</svg>
